<svg width="303" height="57" viewBox="0 0 303 57" fill="none" xmlns="http://www.w3.org/2000/svg">
<mask id="mask0_14_114" style="mask-type:alpha" maskUnits="userSpaceOnUse" x="94" y="4" width="44" height="40">
<path d="M134 36V20H106V36C106 37.5913 106.632 39.1174 107.757 40.2426C108.883 41.3679 110.409 42 112 42H128C129.591 42 131.117 41.3679 132.243 40.2426C133.368 39.1174 134 37.5913 134 36Z" fill="white" stroke="white" stroke-width="4" stroke-linecap="round" stroke-linejoin="round"/>
<path d="M96 20H136M110 8V12M120 6V12M130 8V12" stroke="white" stroke-width="4" stroke-linecap="round" stroke-linejoin="round"/>
</mask>
<g mask="url(#mask0_14_114)">
<path d="M92 0H140V48H92V0Z" fill="#F7E733"/>
</g>
<path d="M8.39844 13.5625V42H2.53906V13.5625H8.39844ZM19.7266 25.7109V30.2812H6.79688V25.7109H19.7266ZM21.0938 13.5625V18.1523H6.79688V13.5625H21.0938ZM22.8125 31.6484V31.2383C22.8125 29.6888 23.0339 28.263 23.4766 26.9609C23.9193 25.6458 24.5638 24.5065 25.4102 23.543C26.2565 22.5794 27.2982 21.8307 28.5352 21.2969C29.7721 20.75 31.1914 20.4766 32.793 20.4766C34.3945 20.4766 35.8203 20.75 37.0703 21.2969C38.3203 21.8307 39.3685 22.5794 40.2148 23.543C41.0742 24.5065 41.7253 25.6458 42.168 26.9609C42.6107 28.263 42.832 29.6888 42.832 31.2383V31.6484C42.832 33.1849 42.6107 34.6107 42.168 35.9258C41.7253 37.2279 41.0742 38.3672 40.2148 39.3438C39.3685 40.3073 38.3268 41.056 37.0898 41.5898C35.8529 42.1237 34.4336 42.3906 32.832 42.3906C31.2305 42.3906 29.8047 42.1237 28.5547 41.5898C27.3177 41.056 26.2695 40.3073 25.4102 39.3438C24.5638 38.3672 23.9193 37.2279 23.4766 35.9258C23.0339 34.6107 22.8125 33.1849 22.8125 31.6484ZM28.4375 31.2383V31.6484C28.4375 32.5339 28.5156 33.3607 28.6719 34.1289C28.8281 34.8971 29.0755 35.5742 29.4141 36.1602C29.7656 36.7331 30.2214 37.1823 30.7812 37.5078C31.3411 37.8333 32.0247 37.9961 32.832 37.9961C33.6133 37.9961 34.2839 37.8333 34.8438 37.5078C35.4036 37.1823 35.8529 36.7331 36.1914 36.1602C36.5299 35.5742 36.7773 34.8971 36.9336 34.1289C37.1029 33.3607 37.1875 32.5339 37.1875 31.6484V31.2383C37.1875 30.3789 37.1029 29.5716 36.9336 28.8164C36.7773 28.0482 36.5234 27.3711 36.1719 26.7852C35.8333 26.1862 35.3841 25.7174 34.8242 25.3789C34.2643 25.0404 33.5872 24.8711 32.793 24.8711C31.9987 24.8711 31.3216 25.0404 30.7617 25.3789C30.2148 25.7174 29.7656 26.1862 29.4141 26.7852C29.0755 27.3711 28.8281 28.0482 28.6719 28.8164C28.5156 29.5716 28.4375 30.3789 28.4375 31.2383ZM45.3906 31.6484V31.2383C45.3906 29.6888 45.612 28.263 46.0547 26.9609C46.4974 25.6458 47.1419 24.5065 47.9883 23.543C48.8346 22.5794 49.8763 21.8307 51.1133 21.2969C52.3503 20.75 53.7695 20.4766 55.3711 20.4766C56.9727 20.4766 58.3984 20.75 59.6484 21.2969C60.8984 21.8307 61.9466 22.5794 62.793 23.543C63.6523 24.5065 64.3034 25.6458 64.7461 26.9609C65.1888 28.263 65.4102 29.6888 65.4102 31.2383V31.6484C65.4102 33.1849 65.1888 34.6107 64.7461 35.9258C64.3034 37.2279 63.6523 38.3672 62.793 39.3438C61.9466 40.3073 60.9049 41.056 59.668 41.5898C58.431 42.1237 57.0117 42.3906 55.4102 42.3906C53.8086 42.3906 52.3828 42.1237 51.1328 41.5898C49.8958 41.056 48.8477 40.3073 47.9883 39.3438C47.1419 38.3672 46.4974 37.2279 46.0547 35.9258C45.612 34.6107 45.3906 33.1849 45.3906 31.6484ZM51.0156 31.2383V31.6484C51.0156 32.5339 51.0938 33.3607 51.25 34.1289C51.4062 34.8971 51.6536 35.5742 51.9922 36.1602C52.3438 36.7331 52.7995 37.1823 53.3594 37.5078C53.9193 37.8333 54.6029 37.9961 55.4102 37.9961C56.1914 37.9961 56.862 37.8333 57.4219 37.5078C57.9818 37.1823 58.431 36.7331 58.7695 36.1602C59.1081 35.5742 59.3555 34.8971 59.5117 34.1289C59.681 33.3607 59.7656 32.5339 59.7656 31.6484V31.2383C59.7656 30.3789 59.681 29.5716 59.5117 28.8164C59.3555 28.0482 59.1016 27.3711 58.75 26.7852C58.4115 26.1862 57.9622 25.7174 57.4023 25.3789C56.8424 25.0404 56.1654 24.8711 55.3711 24.8711C54.5768 24.8711 53.8997 25.0404 53.3398 25.3789C52.793 25.7174 52.3438 26.1862 51.9922 26.7852C51.6536 27.3711 51.4062 28.0482 51.25 28.8164C51.0938 29.5716 51.0156 30.3789 51.0156 31.2383ZM81.3477 37.3906V12H87.0117V42H81.9141L81.3477 37.3906ZM67.9883 31.6875V31.2773C67.9883 29.6628 68.1706 28.1979 68.5352 26.8828C68.8997 25.5547 69.4336 24.4154 70.1367 23.4648C70.8398 22.5143 71.7057 21.7786 72.7344 21.2578C73.763 20.737 74.9349 20.4766 76.25 20.4766C77.487 20.4766 78.5677 20.737 79.4922 21.2578C80.4297 21.7786 81.224 22.5208 81.875 23.4844C82.5391 24.4349 83.0729 25.5612 83.4766 26.8633C83.8802 28.1523 84.1732 29.5651 84.3555 31.1016V32C84.1732 33.4714 83.8802 34.8385 83.4766 36.1016C83.0729 37.3646 82.5391 38.4714 81.875 39.4219C81.224 40.3594 80.4297 41.0885 79.4922 41.6094C78.5547 42.1302 77.4609 42.3906 76.2109 42.3906C74.8958 42.3906 73.724 42.1237 72.6953 41.5898C71.6797 41.056 70.8203 40.3073 70.1172 39.3438C69.4271 38.3802 68.8997 37.2474 68.5352 35.9453C68.1706 34.6432 67.9883 33.224 67.9883 31.6875ZM73.6133 31.2773V31.6875C73.6133 32.5599 73.6784 33.3737 73.8086 34.1289C73.9518 34.8841 74.1797 35.5547 74.4922 36.1406C74.8177 36.7135 75.2344 37.1628 75.7422 37.4883C76.263 37.8008 76.8945 37.957 77.6367 37.957C78.6003 37.957 79.3945 37.7422 80.0195 37.3125C80.6445 36.8698 81.1198 36.2643 81.4453 35.4961C81.7839 34.7279 81.9792 33.8424 82.0312 32.8398V30.2812C81.9922 29.4609 81.875 28.7253 81.6797 28.0742C81.4974 27.4102 81.224 26.8438 80.8594 26.375C80.5078 25.9062 80.0651 25.5417 79.5312 25.2812C79.0104 25.0208 78.3919 24.8906 77.6758 24.8906C76.9466 24.8906 76.3216 25.0599 75.8008 25.3984C75.2799 25.724 74.8568 26.1732 74.5312 26.7461C74.2188 27.319 73.9844 27.9961 73.8281 28.7773C73.6849 29.5456 73.6133 30.3789 73.6133 31.2773Z" fill="#F7E733"/>
<path d="M161.27 42H155.078L155.117 37.4297H161.27C162.806 37.4297 164.102 37.0846 165.156 36.3945C166.211 35.6914 167.005 34.6693 167.539 33.3281C168.086 31.987 168.359 30.3659 168.359 28.4648V27.0781C168.359 25.6198 168.203 24.3372 167.891 23.2305C167.591 22.1237 167.142 21.1927 166.543 20.4375C165.944 19.6823 165.208 19.1159 164.336 18.7383C163.464 18.3477 162.461 18.1523 161.328 18.1523H154.961V13.5625H161.328C163.229 13.5625 164.967 13.888 166.543 14.5391C168.132 15.1771 169.505 16.0951 170.664 17.293C171.823 18.4909 172.715 19.9232 173.34 21.5898C173.978 23.2435 174.297 25.0859 174.297 27.1172V28.4648C174.297 30.4831 173.978 32.3255 173.34 33.9922C172.715 35.6589 171.823 37.0911 170.664 38.2891C169.518 39.474 168.145 40.3919 166.543 41.043C164.954 41.681 163.197 42 161.27 42ZM158.398 13.5625V42H152.539V13.5625H158.398ZM187.93 42.3906C186.289 42.3906 184.818 42.1302 183.516 41.6094C182.214 41.0755 181.107 40.3398 180.195 39.4023C179.297 38.4648 178.607 37.3776 178.125 36.1406C177.643 34.8906 177.402 33.5625 177.402 32.1562V31.375C177.402 29.7734 177.63 28.3086 178.086 26.9805C178.542 25.6523 179.193 24.5 180.039 23.5234C180.898 22.5469 181.94 21.7982 183.164 21.2773C184.388 20.7435 185.768 20.4766 187.305 20.4766C188.802 20.4766 190.13 20.724 191.289 21.2188C192.448 21.7135 193.418 22.4167 194.199 23.3281C194.993 24.2396 195.592 25.3333 195.996 26.6094C196.4 27.8724 196.602 29.2786 196.602 30.8281V33.1719H179.805V29.4219H191.074V28.9922C191.074 28.2109 190.931 27.5143 190.645 26.9023C190.371 26.2773 189.954 25.7826 189.395 25.418C188.835 25.0534 188.118 24.8711 187.246 24.8711C186.504 24.8711 185.866 25.0339 185.332 25.3594C184.798 25.6849 184.362 26.1406 184.023 26.7266C183.698 27.3125 183.451 28.0026 183.281 28.7969C183.125 29.5781 183.047 30.4375 183.047 31.375V32.1562C183.047 33.0026 183.164 33.7839 183.398 34.5C183.646 35.2161 183.991 35.8346 184.434 36.3555C184.889 36.8763 185.436 37.2799 186.074 37.5664C186.725 37.8529 187.461 37.9961 188.281 37.9961C189.297 37.9961 190.241 37.8008 191.113 37.4102C191.999 37.0065 192.76 36.401 193.398 35.5938L196.133 38.5625C195.69 39.2005 195.085 39.8125 194.316 40.3984C193.561 40.9844 192.65 41.4661 191.582 41.8438C190.514 42.2083 189.297 42.3906 187.93 42.3906ZM205.742 12V42H200.098V12H205.742ZM216.328 20.8672V42H210.684V20.8672H216.328ZM210.332 15.3594C210.332 14.5391 210.618 13.862 211.191 13.3281C211.764 12.7943 212.533 12.5273 213.496 12.5273C214.447 12.5273 215.208 12.7943 215.781 13.3281C216.367 13.862 216.66 14.5391 216.66 15.3594C216.66 16.1797 216.367 16.8568 215.781 17.3906C215.208 17.9245 214.447 18.1914 213.496 18.1914C212.533 18.1914 211.764 17.9245 211.191 17.3906C210.618 16.8568 210.332 16.1797 210.332 15.3594ZM228.164 37.8984L232.852 20.8672H238.73L231.602 42H228.047L228.164 37.8984ZM224.941 20.8672L229.648 37.918L229.746 42H226.172L219.043 20.8672H224.941ZM250.703 42.3906C249.062 42.3906 247.591 42.1302 246.289 41.6094C244.987 41.0755 243.88 40.3398 242.969 39.4023C242.07 38.4648 241.38 37.3776 240.898 36.1406C240.417 34.8906 240.176 33.5625 240.176 32.1562V31.375C240.176 29.7734 240.404 28.3086 240.859 26.9805C241.315 25.6523 241.966 24.5 242.812 23.5234C243.672 22.5469 244.714 21.7982 245.938 21.2773C247.161 20.7435 248.542 20.4766 250.078 20.4766C251.576 20.4766 252.904 20.724 254.062 21.2188C255.221 21.7135 256.191 22.4167 256.973 23.3281C257.767 24.2396 258.366 25.3333 258.77 26.6094C259.173 27.8724 259.375 29.2786 259.375 30.8281V33.1719H242.578V29.4219H253.848V28.9922C253.848 28.2109 253.704 27.5143 253.418 26.9023C253.145 26.2773 252.728 25.7826 252.168 25.418C251.608 25.0534 250.892 24.8711 250.02 24.8711C249.277 24.8711 248.639 25.0339 248.105 25.3594C247.572 25.6849 247.135 26.1406 246.797 26.7266C246.471 27.3125 246.224 28.0026 246.055 28.7969C245.898 29.5781 245.82 30.4375 245.82 31.375V32.1562C245.82 33.0026 245.938 33.7839 246.172 34.5C246.419 35.2161 246.764 35.8346 247.207 36.3555C247.663 36.8763 248.21 37.2799 248.848 37.5664C249.499 37.8529 250.234 37.9961 251.055 37.9961C252.07 37.9961 253.014 37.8008 253.887 37.4102C254.772 37.0065 255.534 36.401 256.172 35.5938L258.906 38.5625C258.464 39.2005 257.858 39.8125 257.09 40.3984C256.335 40.9844 255.423 41.4661 254.355 41.8438C253.288 42.2083 252.07 42.3906 250.703 42.3906ZM268.203 25.4766V42H262.578V20.8672H267.871L268.203 25.4766ZM274.57 20.7305L274.473 25.9453C274.199 25.9062 273.867 25.8737 273.477 25.8477C273.099 25.8086 272.754 25.7891 272.441 25.7891C271.647 25.7891 270.957 25.8932 270.371 26.1016C269.798 26.2969 269.316 26.5898 268.926 26.9805C268.548 27.3711 268.262 27.8464 268.066 28.4062C267.884 28.9661 267.78 29.6042 267.754 30.3203L266.621 29.9688C266.621 28.6016 266.758 27.3451 267.031 26.1992C267.305 25.0404 267.702 24.0312 268.223 23.1719C268.757 22.3125 269.408 21.6484 270.176 21.1797C270.944 20.7109 271.823 20.4766 272.812 20.4766C273.125 20.4766 273.444 20.5026 273.77 20.5547C274.095 20.5938 274.362 20.6523 274.57 20.7305ZM283.848 39.6172L289.453 20.8672H295.488L286.992 45.1836C286.81 45.7174 286.562 46.2904 286.25 46.9023C285.951 47.5143 285.54 48.0938 285.02 48.6406C284.512 49.2005 283.867 49.6562 283.086 50.0078C282.318 50.3594 281.374 50.5352 280.254 50.5352C279.72 50.5352 279.284 50.5026 278.945 50.4375C278.607 50.3724 278.203 50.2812 277.734 50.1641V46.043C277.878 46.043 278.027 46.043 278.184 46.043C278.34 46.056 278.49 46.0625 278.633 46.0625C279.375 46.0625 279.98 45.9779 280.449 45.8086C280.918 45.6393 281.296 45.3789 281.582 45.0273C281.868 44.6888 282.096 44.2461 282.266 43.6992L283.848 39.6172ZM281.504 20.8672L286.094 36.1797L286.895 42.1367L283.066 42.5469L275.469 20.8672H281.504Z" fill="#2B2D42"/>
</svg>
